HIERARCHY
ROOT Hips
{
	OFFSET 17.832336 103.162056 -8.849480
	CHANNELS 6 Xposition Yposition Zposition Xrotation Yrotation Zrotation
	JOINT Chest
	{
		OFFSET 3.879560 13.074097 0.413914
		CHANNELS 3 Xrotation Yrotation Zrotation
		JOINT Chest2
		{
			OFFSET 6.287624 20.383476 2.011601
			CHANNELS 3 Xrotation Yrotation Zrotation
			JOINT Chest3
			{
				OFFSET 5.525198 13.739426 1.876222
				CHANNELS 3 Xrotation Yrotation Zrotation
				JOINT Neck
				{
					OFFSET 5.296284 16.305756 2.165148
					CHANNELS 3 Xrotation Yrotation Zrotation
					JOINT Head
					{
						OFFSET 0.593822 9.182968 5.014809
						CHANNELS 3 Xrotation Yrotation Zrotation
						End Site
						{
							OFFSET 0.642841 9.206223 4.965860
						}
					}
				}
				JOINT LeftCollar
				{
					OFFSET 5.884518 11.306549 6.272061
					CHANNELS 3 Xrotation Yrotation Zrotation
					JOINT LeftUpArm
					{
						OFFSET 15.336712 -8.529938 -0.724448
						CHANNELS 3 Xrotation Yrotation Zrotation
						JOINT LeftLowArm
						{
							OFFSET 18.588676 -27.909340 -3.906148
							CHANNELS 3 Xrotation Yrotation Zrotation
							JOINT LeftHand
							{
								OFFSET 10.016426 -25.119804 13.023575
								CHANNELS 3 Xrotation Yrotation Zrotation
								End Site
								{
									OFFSET 2.189178 -5.490067 2.846379
								}
							}
						}
					}
				}
				JOINT RightCollar
				{
					OFFSET -0.791950 14.050064 1.943446
					CHANNELS 3 Xrotation Yrotation Zrotation
					JOINT RightUpArm
					{
						OFFSET -6.767172 -1.982010 -16.086433
						CHANNELS 3 Xrotation Yrotation Zrotation
						JOINT RightLowArm
						{
							OFFSET -2.657940 -27.603485 -19.254025
							CHANNELS 3 Xrotation Yrotation Zrotation
							JOINT RightHand
							{
								OFFSET 20.987364 -12.611885 17.361628
								CHANNELS 3 Xrotation Yrotation Zrotation
								End Site
								{
									OFFSET 4.586998 -2.756454 3.794552
								}
							}
						}
					}
				}
			}
		}
	}
	JOINT LeftUpLeg
	{
		OFFSET 6.018383 -2.031464 7.750570
		CHANNELS 3 Xrotation Yrotation Zrotation
		JOINT LeftLowLeg
		{
			OFFSET -25.628782 -35.944420 17.180019
			CHANNELS 3 Xrotation Yrotation Zrotation
			JOINT LeftFoot
			{
				OFFSET -17.026293 -41.067924 4.908968
				CHANNELS 3 Xrotation Yrotation Zrotation
				JOINT LeftToe
				{
					OFFSET -11.938536 -15.986013 12.707397
					CHANNELS 3 Xrotation Yrotation Zrotation
					End Site
					{
						OFFSET -11.753958 -2.035288 20.426968
					}
				}
			}
		}
	}
	JOINT RightUpLeg
	{
		OFFSET -6.018443 2.031281 -7.750580
		CHANNELS 3 Xrotation Yrotation Zrotation
		JOINT RightLowLeg
		{
			OFFSET -5.293391 -46.926395 -3.728930
			CHANNELS 3 Xrotation Yrotation Zrotation
			JOINT RightFoot
			{
				OFFSET 24.601673 -35.875847 -10.404856
				CHANNELS 3 Xrotation Yrotation Zrotation
				JOINT RightToe
				{
					OFFSET -17.123810 -15.768988 4.203690
					CHANNELS 3 Xrotation Yrotation Zrotation
					End Site
					{
						OFFSET -23.332920 -1.089931 3.734024
					}
				}
			}
		}
	}
}
MOTION
Frames: 17
Frame Time: 0.033333
17.667631 95.797897 -21.362041 4.031864 1.927994 -5.716339 3.630541 -0.639790 -2.610689 -0.310566 1.961505 -4.060585 -0.805991 1.538801 3.127471 -3.223445 0.420101 -1.479799 -0.000000 0.000001 0.000002 -3.843738 -0.305079 5.507268 -11.338080 -11.282777 17.427573 -5.914442 -0.496160 20.457702 -0.000001 -0.000001 -0.000000 -0.410195 -2.344758 -1.505008 4.546810 -6.935059 0.570678 49.621912 23.947205 -11.509615 -0.000006 -0.000003 0.000001 -4.853882 3.224963 1.209207 -2.535527 1.401033 0.730187 -0.437019 -1.225674 -1.361082 -0.000002 0.000004 -0.000000 -4.467816 0.576890 2.464671 -2.956267 -0.997991 10.785920 1.155200 -9.396589 -5.587307 0.000001 -0.000000 -0.000000 
17.672600 95.775436 -21.565315 3.936931 1.982484 -5.791861 3.779238 -0.679484 -2.517651 0.022562 1.877499 -3.893268 -1.244381 1.184559 2.914192 -2.937077 0.798030 -1.656278 -0.000001 0.000003 -0.000001 -3.827127 -0.033453 5.419044 -11.396714 -11.086080 17.550577 -6.218085 -0.435598 20.211090 -0.000004 -0.000002 -0.000000 -0.308725 -1.949295 -1.408786 4.534111 -6.945628 0.362146 49.834785 23.818857 -11.430691 -0.000004 0.000003 -0.000005 -4.653196 3.126847 1.270724 -2.519730 1.277925 0.754902 -0.348196 -1.031361 -1.350651 -0.000001 0.000001 0.000001 -4.250079 0.525284 2.533343 -3.115998 -0.957410 10.809135 1.210512 -9.538338 -5.561652 0.000001 0.000001 0.000001 
17.674486 95.757950 -21.763670 3.975238 2.158726 -5.834521 4.048468 -0.770348 -2.378076 -0.099246 1.943056 -4.015436 -1.261409 1.267766 2.942282 -3.042294 0.663203 -1.590903 0.000001 0.000003 0.000000 -3.842228 -0.476451 5.435811 -11.356060 -11.173537 17.463679 -6.095084 -0.533973 20.519493 -0.000001 -0.000001 -0.000004 -0.422575 -2.215969 -1.400009 4.315110 -6.762570 0.402952 48.801292 23.731211 -11.000926 -0.000004 0.000001 -0.000003 -4.669017 3.104903 1.186332 -2.361026 1.053112 0.921606 -0.413713 -0.828690 -1.378436 -0.000001 0.000001 0.000002 -4.277340 0.579461 2.519500 -3.191840 -0.847184 10.946530 1.558762 -10.322993 -5.608435 0.000000 0.000001 0.000000 
17.671913 95.738586 -21.950516 4.209963 1.806638 -5.843782 3.510470 -0.590565 -2.603094 0.167106 1.817784 -3.798082 -1.262293 1.312841 2.910617 -3.390307 0.608639 -1.743556 0.000002 -0.000001 -0.000003 -3.866927 -0.344825 5.367482 -11.912082 -11.692680 17.389708 -5.956107 -0.310461 20.201903 -0.000001 -0.000002 -0.000000 -0.718312 -2.466398 -1.420059 4.882431 -6.818483 -0.038660 50.411827 23.975798 -11.819684 0.000002 0.000005 -0.000000 -5.133132 3.340934 1.261450 -2.256394 1.124276 0.888529 -0.435209 -0.996833 -1.388918 0.000001 0.000004 -0.000001 -4.471150 0.571332 2.586992 -2.859811 -0.861720 10.893464 1.291714 -9.510583 -5.494530 -0.000000 -0.000000 0.000001 
17.673624 95.727699 -22.138565 4.372149 1.059838 -5.692694 3.482143 -0.550696 -2.924166 -0.146592 1.901897 -3.979272 -0.982949 1.953740 3.297896 -3.465996 0.678309 -1.774555 0.000002 0.000000 0.000001 -3.868029 -0.498260 5.333812 -12.031425 -11.869568 17.334166 -5.430090 0.243344 20.439124 0.000001 -0.000003 -0.000001 -1.347195 -3.257013 -1.384212 5.795772 -6.866722 -0.465511 53.321552 24.249538 -14.069850 -0.000004 0.000004 0.000001 -5.618226 3.580493 1.425693 -2.405945 1.191245 0.676110 -0.116337 -0.802329 -1.146792 -0.000000 0.000001 0.000003 -4.922305 0.718061 2.355346 -2.447526 -0.687261 11.020540 1.043943 -9.060686 -5.533035 -0.000000 0.000001 0.000001 
17.672915 95.716614 -22.328938 4.085123 1.430207 -5.769181 4.101179 -0.763486 -2.841081 -0.294370 1.817301 -3.803866 -1.077135 1.889956 3.153297 -3.545169 0.765142 -1.864704 -0.000005 0.000002 0.000000 -3.915737 -0.693333 5.365480 -12.344335 -12.281325 17.136834 -5.254001 0.217635 20.378020 -0.000003 0.000003 -0.000002 -1.298335 -3.159697 -1.352380 5.911036 -6.996168 -0.450461 53.260712 24.189914 -14.203135 -0.000000 0.000001 -0.000003 -5.025672 3.306113 1.400394 -2.204785 1.061248 0.818239 -0.285665 -0.887219 -1.299112 0.000001 -0.000002 -0.000001 -4.542847 0.630835 2.350625 -2.617434 -0.762131 11.093621 1.263169 -9.566487 -5.446232 -0.000001 0.000000 -0.000000 
17.674410 95.705284 -22.516136 4.203619 1.443978 -5.788510 3.556462 -0.586032 -2.843704 0.461056 1.812180 -3.740695 -1.482241 1.417727 2.973212 -3.620443 0.844801 -1.947533 -0.000003 -0.000000 0.000001 -3.888997 -0.860820 5.414713 -12.329743 -12.263474 17.116027 -5.516849 0.218251 20.429791 -0.000005 -0.000001 -0.000004 -0.632895 -2.166436 -1.237960 5.103196 -6.833977 -0.042548 51.593179 23.904279 -12.967859 -0.000004 0.000001 0.000004 -5.195250 3.332419 1.325824 -2.288223 1.104931 0.911250 -0.241208 -0.982194 -1.229803 -0.000001 0.000003 -0.000000 -4.568325 0.648332 2.405315 -2.782986 -0.836997 11.100174 1.184246 -9.370912 -5.569134 0.000001 -0.000000 0.000000 
17.670185 95.695251 -22.705757 4.299807 1.533034 -5.795648 3.663060 -0.620160 -2.906454 0.564838 1.734809 -3.608094 -1.985327 1.254281 2.816929 -3.704539 0.915820 -1.949264 0.000002 -0.000003 0.000003 -3.782027 -0.646873 5.384613 -12.349242 -12.389665 17.219884 -5.107706 0.494397 20.542644 0.000000 -0.000001 -0.000004 -0.277391 -1.758854 -1.184420 4.893188 -6.778246 0.142718 51.752074 23.942934 -13.280414 -0.000001 -0.000002 -0.000000 -5.156435 3.347235 1.260217 -2.268737 1.069479 1.004041 -0.475796 -0.973232 -1.443539 -0.000000 0.000003 0.000001 -4.625930 0.619450 2.532764 -2.830592 -0.826577 11.009482 1.208641 -9.448397 -5.503496 -0.000000 0.000001 0.000001 
17.670399 95.687027 -22.898886 4.390047 1.893959 -5.874104 3.551975 -0.597531 -2.739442 0.775463 1.661285 -3.449039 -2.157491 0.861898 2.558928 -3.763938 0.937393 -2.019479 -0.000003 0.000000 -0.000003 -3.586366 0.030274 5.220033 -12.505968 -12.698952 17.301754 -4.916978 0.481799 20.681830 -0.000000 -0.000003 -0.000005 0.181664 -1.014106 -1.045030 4.168034 -6.492726 0.369624 48.543370 23.421369 -11.342629 -0.000000 0.000003 0.000003 -4.962196 3.247324 1.187370 -2.102719 1.069193 1.047788 -0.578599 -0.982187 -1.448795 0.000001 0.000004 -0.000001 -4.648101 0.596335 2.627899 -3.018436 -1.022805 10.962495 1.390646 -9.513947 -5.377707 0.000001 0.000001 0.000001 
17.658718 95.683601 -23.073883 4.398189 1.762366 -5.815400 3.624703 -0.587201 -2.911919 0.383727 1.733952 -3.630148 -1.658263 1.138325 2.895629 -3.842466 0.780113 -2.034980 0.000002 -0.000003 -0.000000 -3.838551 -0.388056 4.994638 -12.098609 -11.679065 17.873943 -5.081105 0.824616 20.050061 0.000001 -0.000002 -0.000002 -0.636256 -1.928768 -1.293867 5.514064 -7.428394 -0.118003 52.076914 23.586460 -13.469998 -0.000001 -0.000001 -0.000001 -5.450366 3.453736 1.322889 -2.123615 1.037512 0.860083 -0.361577 -1.000073 -1.348452 -0.000001 0.000006 -0.000001 -4.785149 0.647533 2.723620 -2.896145 -0.867809 10.811705 1.018751 -9.223480 -5.643435 0.000001 -0.000000 0.000000 
17.652424 95.677429 -23.256832 4.405627 1.701161 -5.841258 4.187178 -0.780241 -2.839281 -0.018179 1.823775 -3.784357 -1.269937 1.550905 3.131239 -4.111253 0.708065 -2.135845 0.000001 -0.000000 -0.000002 -4.022134 -1.028864 5.146332 -11.682099 -11.319480 17.778214 -4.872630 0.744874 20.652822 -0.000002 -0.000004 -0.000005 -0.954060 -2.389293 -1.315369 5.701323 -7.560719 -0.042703 52.334767 23.492779 -14.438038 -0.000004 -0.000001 0.000003 -5.390047 3.429178 1.402986 -2.348628 1.240532 0.656368 -0.372853 -0.967407 -1.288341 -0.000001 0.000004 -0.000001 -4.727799 0.657837 2.699047 -2.999925 -0.970343 10.866422 0.987567 -9.214301 -5.707692 -0.000000 -0.000000 0.000001 
17.643410 95.669640 -23.431282 4.590246 1.972045 -5.997308 4.261091 -0.808884 -2.663083 0.436356 1.703737 -3.587827 -1.903933 0.981333 2.843138 -3.927310 0.855857 -2.222026 -0.000002 0.000001 -0.000001 -4.194618 -0.654698 5.066906 -12.388074 -11.785130 17.760961 -4.720496 1.132836 20.209970 -0.000001 -0.000001 -0.000004 -0.526819 -1.534500 -1.407408 4.853109 -7.413567 -0.069072 51.012904 23.403795 -13.032540 -0.000002 -0.000001 -0.000001 -5.049967 3.312190 1.363202 -2.575728 1.394871 0.682217 -0.201480 -1.328090 -1.330460 0.000000 0.000001 0.000002 -4.983496 0.646219 2.834761 -3.297135 -1.052951 10.793307 0.992644 -9.604871 -5.927218 -0.000000 -0.000000 -0.000000 
17.640230 95.665619 -23.602245 5.210311 1.486806 -5.968383 4.175582 -0.751910 -2.688043 0.061386 1.761235 -3.746841 -1.572885 0.681725 2.978901 -4.082769 1.281796 -2.503454 -0.000002 0.000002 0.000002 -4.224112 -0.222657 4.969392 -12.888827 -12.198446 17.887847 -4.805027 1.442710 20.255192 0.000000 -0.000003 -0.000002 -0.229716 -0.421895 -0.940802 4.714928 -7.741805 0.151904 51.540587 22.714286 -14.593792 -0.000001 0.000000 0.000002 -6.068561 3.782358 1.384499 -2.504720 1.304683 0.680238 -0.536498 -0.562937 -1.438542 0.000000 0.000005 0.000000 -5.566116 0.798350 2.664568 -3.269946 -0.955831 10.970630 1.033766 -9.859332 -5.903085 0.000001 0.000000 -0.000000 
17.631414 95.645782 -23.772762 4.934071 0.924156 -5.858325 4.105273 -0.735212 -3.012929 0.738087 1.771149 -3.732453 -1.991047 2.044404 3.196616 -4.339155 0.715040 -2.102414 -0.000000 0.000000 0.000001 -3.948280 -0.914485 4.926942 -12.589995 -12.297126 17.870475 -5.015247 1.008481 20.761639 -0.000002 -0.000002 -0.000000 -1.128322 -2.034450 -0.967718 5.274291 -6.992807 -0.373860 50.513866 22.930045 -13.560355 -0.000001 -0.000003 0.000001 -5.607613 3.558024 1.478343 -2.792729 1.386741 0.684984 -0.249062 -0.514065 -1.189442 -0.000001 0.000001 0.000002 -5.199955 0.755902 2.631008 -2.937179 -0.811776 10.981639 0.760445 -9.087999 -6.011533 0.000001 0.000000 -0.000000 
17.629141 95.632744 -23.946379 5.438069 1.211693 -5.874230 4.020475 -0.703982 -2.955135 0.698066 1.661392 -3.524221 -2.062007 1.392831 2.954360 -4.500005 0.957614 -2.353861 -0.000002 -0.000003 0.000001 -3.973607 -0.819643 5.002043 -12.383077 -12.181352 18.007702 -4.706996 1.073022 21.047184 -0.000004 -0.000002 -0.000002 -1.114367 -1.761676 -0.701106 5.366089 -7.083577 -0.275999 52.722039 23.121480 -15.588414 -0.000003 0.000003 0.000003 -5.921814 3.703118 1.253517 -2.401507 1.220855 0.703657 -0.494658 -0.538094 -1.387896 -0.000001 0.000001 0.000004 -5.544227 0.813795 2.669268 -3.434169 -1.081838 10.867750 0.953467 -9.509393 -5.982804 0.000001 0.000000 -0.000001 
17.630398 95.611824 -24.115192 5.227816 0.639943 -5.826030 3.840474 -0.633496 -3.158991 0.517247 1.654039 -3.506593 -1.536363 2.296112 3.172552 -4.621173 0.632755 -2.163868 -0.000000 0.000003 -0.000001 -3.976495 -1.576725 5.031615 -12.143806 -12.015554 17.859673 -4.709804 1.078715 21.550282 0.000000 -0.000001 -0.000000 -1.645283 -2.592523 -0.735669 5.625656 -6.640533 -0.653400 53.364534 23.408400 -15.618226 0.000001 0.000005 0.000003 -5.991753 3.761712 1.560000 -2.798870 1.421598 0.388535 -0.282227 -0.099269 -1.175361 -0.000000 0.000003 0.000001 -5.205314 0.774981 2.544173 -3.211330 -1.000205 10.982261 0.845718 -9.152804 -5.948943 0.000001 -0.000000 -0.000000 
17.635691 95.587944 -24.281200 4.948490 0.328471 -5.741680 4.413051 -0.808582 -3.200577 0.327648 1.717365 -3.713101 -1.698317 2.571892 3.458388 -4.452516 0.694873 -2.283114 -0.000001 -0.000002 -0.000001 -3.973405 -1.014713 4.855728 -12.532064 -12.058025 17.871755 -5.185198 1.043185 21.162810 0.000003 -0.000002 -0.000000 -1.513407 -1.986489 -0.635229 5.081210 -6.627891 -0.653988 51.341562 22.993101 -14.018493 -0.000006 0.000007 0.000002 -5.873962 3.745934 1.627993 -3.209754 1.876476 0.305913 0.148172 -0.631657 -0.875034 0.000001 0.000003 0.000000 -5.213293 0.741885 2.297110 -2.877027 -1.073638 11.262966 0.639562 -8.439605 -5.900501 0.000001 0.000000 0.000000 
